<svg width="371" height="109" viewBox="0 0 371 109" fill="none" xmlns="http://www.w3.org/2000/svg">
<path d="M37.8641 107.339C37.9222 107.238 38.1716 107.355 38.3688 107.392C38.4996 107.397 38.6175 107.394 38.7038 107.371C38.6572 107.629 38.5563 107.809 38.4281 107.927C38.1792 108.404 37.6417 107.74 37.8641 107.339ZM70.1133 8.30407C69.7863 8.64803 69.4593 8.99215 69.1323 9.33642C70.1161 9.50299 71.4101 9.20204 72.3229 9.47312C72.4723 9.5188 72.1334 10.4856 72.4833 10.5124C72.8331 10.5389 72.7082 9.24409 73.2082 9.08285C73.7705 8.90527 76.4012 9.69841 77.2935 9.64035C80.6366 9.41477 83.963 8.54671 87.2948 8.96755C83.9105 10.0514 87.391 10.904 88.3326 10.4544C88.5403 10.3509 88.4259 7.93675 91.8616 8.42727C94.0381 8.73954 92.1592 12.2573 95.7029 10.4079C92.8555 8.08641 95.5825 8.16414 97.7448 8.0125C98.1169 7.98589 101.135 8.24977 102.445 8.09961C102.896 8.0475 103.543 6.76046 104.137 6.70757C104.547 6.67208 104.876 7.35317 105.488 7.29758C108.316 7.04744 111.091 6.89925 113.89 7.03192C112.366 10.3399 115.228 8.36994 115.357 8.52015C116.056 9.37786 113.053 9.73901 114.266 10.2472C115.926 10.0861 117.581 9.92287 119.222 9.75687C117.854 9.4118 120.899 6.95053 121.51 7.98841C121.376 6.96015 122.322 6.95436 123.613 7.3194L121.106 7.4975C122.745 8.09861 126.174 9.67244 126.913 8.96119C127.166 8.72593 125.241 7.53304 129.277 7.68857C129.732 7.7055 129.671 8.58613 129.89 8.47795C130.01 8.41436 130.558 5.57223 131.652 6.97535C132.067 7.48873 130.066 9.53439 134.82 8.25881C132.539 5.67908 141.488 6.01678 143.131 6.60322C142.775 6.25702 142.422 5.91093 142.072 5.56494C143.737 6.43283 143.963 5.45852 144.307 5.48026C145.758 5.56305 147.792 6.36223 149.094 6.17549C150.599 5.96061 150.527 4.21708 152.322 4.76992C151.874 4.41569 151.429 4.06164 150.989 3.70776C152.183 3.71414 153.492 3.7169 154.675 3.73205C152.053 6.2204 155.27 3.80181 155.517 3.73782C155.877 3.63054 155.411 4.60717 156.016 4.45061C156.071 4.42787 155.957 3.54296 156.851 3.38695C158.75 3.0639 158.528 4.19961 159.35 4.13819C159.426 4.12819 159.118 3.34222 160.481 3.07426C164.914 2.22391 160.472 3.68841 160.332 3.80903C160.107 3.96959 161.854 7.21965 158 6.25867C159.29 6.55958 159.52 8.03209 159.663 8.06042C159.776 8.08329 161.922 7.75246 162.051 7.69503C163.112 7.13284 162.098 6.17366 162.301 5.98079C162.488 5.82302 165.102 7.00696 165.597 3.93228C167.004 6.67656 164.963 6.51785 162.943 7.0595C162.669 7.65121 164.965 8.09152 165.097 8.08404C168.06 7.92984 166.296 5.70418 166.87 4.19592C167.165 3.40719 168.446 4.9249 167.236 2.90765C169.922 2.56069 168.345 3.83854 168.525 4.00775C168.806 4.25591 169.721 3.61897 169.831 3.6933C170.005 3.8027 169.453 4.54625 170.127 4.76866C170.239 4.8004 171.259 3.51809 169.847 2.99091C171.707 3.08276 171.524 2.03785 172.256 4.13025C173.412 0.061843 173.292 6.46169 173.806 6.66522C175.156 7.20288 174.647 4.06903 174.71 3.9125C175.173 2.90615 178.91 3.845 179.825 3.35876C179.521 5.64127 176.924 3.49157 176.332 3.95643C174.45 5.49671 179.081 4.98593 177.795 7.89096C178.339 7.08608 178.89 6.28134 179.45 5.47674C180.588 7.27116 179.125 8.12303 181.956 7.3523C182.371 5.75322 179.944 7.67362 180.395 6.40984C180.695 5.66638 182.311 5.45247 182.336 5.06571C182.35 4.60028 180.89 5.20221 181.099 4.48009C181.517 2.92038 187.12 4.20271 182.932 5.18441C184.089 5.11882 184.838 8.16254 185.791 7.17595C186.423 6.53592 182.639 2.41652 188.135 3.02215C188.291 4.46577 185.949 3.51738 185.901 3.62963C185.823 3.7926 186.339 7.04552 186.415 7.20449C186.676 7.72514 192.228 5.80977 193.468 7.42127C192.98 5.54402 197.65 6.97418 198.171 6.3874C198.305 6.22521 197.763 5.08129 197.907 4.95528C198.247 4.67006 198.825 4.78218 199.481 5.03259C200.541 5.44176 201.769 6.22076 202.467 6.23824C203.725 6.27059 203.541 5.27554 203.611 5.27581C204.162 5.31943 203.738 6.00626 204.073 5.997C204.578 5.98193 208.154 6.04585 208.31 5.90206C208.36 5.857 207.766 4.7273 208.525 4.49558C208.662 4.45553 208.575 5.80974 210.883 5.1812C213.634 4.4267 208.926 3.53495 210.049 2.09658C211.874 4.07996 211.77 2.08259 212.254 2.2307C212.428 2.28475 213.658 3.9627 215.031 3.83218C214.052 4.12457 213.109 4.41707 212.154 4.71044C213.094 4.99124 214.937 4.59047 215.731 4.91447C216.115 5.07215 215.825 6.47353 216.651 6.42256C216.824 6.40436 217.474 2.99046 215.322 4.55256C215.127 3.34068 216.179 4.11455 216.65 3.76344C216.721 3.70877 216.975 1.67475 217.602 2.92663C217.765 3.23508 216.217 9.17775 220.314 4.83276C220.446 4.6928 219.972 3.95788 220.1 3.80236C220.188 3.69694 221.247 3.98236 221.361 3.87571C221.478 3.76124 220.959 2.95866 221.099 2.79749C221.814 1.967 222.802 5.16495 221.309 4.94001C221.814 5.33007 222.313 5.72042 222.818 6.1109C222.244 3.69826 223.607 5.42 224.301 5.33746C228.734 4.81168 225.745 3.27124 226.499 2.44857C227.712 1.12874 226.82 5.27838 228.64 4.01669C228.805 3.89933 226.589 2.16 230.901 3.11487C230.269 3.18841 229.635 3.26232 228.998 3.33659C229.39 5.67322 231.283 3.1565 231.439 3.12273C233.138 2.78893 231.999 3.64002 234.503 2.41895C234.728 2.3094 235.216 2.88416 235.698 2.5935C237.685 1.39582 233.069 1.88771 232.935 0.942463C232.872 0.477032 237.846 0.566532 238.017 0.787961C238.745 1.76192 235.765 1.22838 236.338 2.43914C236.551 2.86579 243.62 1.95912 245.032 2.43414C246.665 2.98285 247.4 6.1569 247.412 2.59144C247.868 6.09145 248.274 3.70405 248.483 3.72838C250.997 4.0557 251.013 4.0914 253.158 3.7621C253.634 3.69066 254.033 4.75384 254.202 4.57509C254.3 4.46713 254.12 3.33013 254.603 2.98117C255.289 2.50319 259.248 3.68925 259.558 4.31951C259.853 4.94906 257.862 4.58379 258.214 5.61832C259.665 5.72941 261.013 5.48088 262.46 5.59793C263.06 5.64967 262.747 6.37077 263.007 6.38664C263.125 6.3961 265.182 5.77197 265.095 5.50487C264.924 4.8827 258.513 5.26439 260.207 4.00856C260.529 3.76571 261.662 5.43763 261.491 3.41109C267.189 3.90151 272.85 4.40282 278.501 4.90505C275.246 6.39534 271.574 5.01289 268.19 5.13218C267.712 5.14644 266.123 4.94071 266.31 5.96578C269.24 6.24961 272.838 5.74214 275.597 6.43007C275.686 6.45282 275.351 7.37018 275.685 7.51845C276.313 7.7952 278.356 6.32711 278.682 6.71325C278.738 6.80305 277.591 8.007 277.931 8.78025C278.803 10.7646 279.064 6.3863 279.836 6.4441C280.447 6.49076 284.425 8.63931 285.442 7.30897C286.514 5.89093 282.495 6.45834 282.81 5.29461C285.507 4.14346 288.272 5.41607 290.836 5.28922C290.881 5.28584 290.492 4.3691 291.071 4.24556C292.077 4.03055 292.353 5.32881 292.817 5.5396C293.324 5.76411 295.161 5.59171 295.409 6.06609C295.44 6.12828 295.056 7.41121 294.999 7.44695C294.192 7.971 293.923 6.30031 293.85 6.27836C293.578 6.2131 293.307 6.85027 293.061 6.81039C292.654 6.74392 292.442 6.15103 291.881 6.09467C291.498 6.05361 291.86 7.19185 291.491 7.13719C291.354 7.11252 289.925 4.50887 289.773 7.15455C289.773 7.98997 301.434 9.14585 302.657 8.48514C301.636 8.1601 300.628 7.83502 299.632 7.5099C301.645 8.29855 304.193 6.20036 304.307 9.32988C311.9 9.63504 319.46 9.93178 327.009 10.2192C328.37 10.4914 327.63 12.4991 329.871 11.9227C329.325 11.2801 328.709 10.6371 328.134 9.99423C329.353 10.4489 334.261 11.3448 335.139 10.9327C335.248 10.8787 335.398 9.05956 336.692 8.90737C337.801 8.77284 337.964 10.1367 338.556 10.3996C339.051 10.6166 339.613 10.261 339.761 10.3367C339.875 10.3973 339.917 11.2311 340.192 11.3773C341.059 11.8292 340.36 9.47985 341.219 12.1778C341.007 12.2799 340.796 12.3821 340.586 12.4842C341.634 12.8773 343.084 14.1048 341.52 14.7045C341.253 14.808 341.484 14.002 341.285 14.0029C333.586 14.1303 339.681 15.7167 342.451 14.4713C343.186 15.6685 347.068 14.9478 347.194 15.1834C347.373 15.5249 346.706 16.4787 347.576 17.3052C347.739 17.4805 353.047 16.8209 351.131 18.4058C350.73 18.7328 348.201 18.3838 347.605 18.4292C349.005 20.9654 352.411 17.3422 352.802 17.4357C354.314 17.8329 349.855 19.6262 353.289 19.9261C355.866 20.1558 353.447 18.4608 354.441 17.7403C354.992 17.3361 357.956 19.203 357.883 16.79C358.911 16.5334 358.308 17.8104 358.435 17.9024C358.557 17.9834 360.592 17.263 361.264 17.7721C361.345 17.8354 361.089 19.0894 361.172 19.1921C361.349 19.368 363.228 19.1186 363.311 19.0123C363.36 18.9385 362.906 17.8402 363.093 17.574C363.308 17.2672 365.153 17.5265 365.258 17.2127C365.399 16.7382 363.122 17.0496 363.503 15.8219C364.546 16.1317 366.27 15.3132 366.976 14.3249C366.802 14.6075 365.772 14.6477 365.418 14.5479C365.582 12.7497 367.799 12.7749 367.04 14.198C367.523 13.4337 367.194 13.0281 367.466 12.3068C367.537 12.124 368.226 12.0866 368.359 11.7752C368.376 11.7132 367.665 11.0345 367.808 10.6693C368.062 10.0093 370.165 10.1581 370.341 10.3312C370.828 10.8219 369.105 11.4156 368.964 12.1741C368.942 12.2906 370.405 13.7772 370.429 13.9085C370.513 15.3171 368.885 14.3019 369.072 15.5701C369.473 15.8381 369.875 16.106 370.279 16.3739C368.714 17.6583 365.886 16.997 365.168 18.4574C367.41 18.0238 369.823 18.0753 369.818 21.3652C369.816 22.7507 368.824 23.5628 368.863 23.9151C369.007 25.1756 370.388 23.8064 370.44 23.8729C370.482 23.9497 370.501 24.0245 370.501 24.0973C370.501 24.0973 370.501 24.0974 370.501 24.0974C370.499 24.8355 368.533 25.3668 368.438 25.7037C368.273 26.3022 369.143 28.7663 369.143 29.3113C369.111 29.4208 367.719 30.0036 368.189 30.9547C368.662 31.9155 369.887 31.9368 369.931 32.0366C370.163 32.6113 368.023 33.1352 367.963 33.4745C367.928 33.6461 369.073 34.7005 369.108 35.0035C369.136 35.3076 368.264 35.9711 367.922 36.9309C367.667 37.644 368.41 38.1909 368.279 38.3027C368.183 38.3768 366.182 38.3641 366.087 38.4894C365.941 38.6748 366.407 39.5273 366.339 39.7403C366.243 40.0468 365.601 39.7389 365.685 40.0543C365.743 40.2894 368.245 43.2283 368.233 44.013C368.201 45.3516 365.545 42.271 368.018 47.554C368.035 47.5887 368.64 47.2134 368.657 47.246C369.032 48.2179 367.086 49.7127 369.466 49.4517C365.049 51.1389 368.913 51.4639 368.259 53.7176C368.005 54.584 366.305 54.9407 366.299 55.0707C366.463 56.1698 367.003 55.3176 367.188 55.8565C367.288 56.1577 365.771 57.3192 366.112 58.0738C366.286 58.4628 367.901 58.3248 367.97 58.4007C368.613 59.1162 367.824 59.8866 367.965 60.3948C368.058 60.7355 369.041 60.7626 369.068 60.824C369.108 60.9516 367.773 62.3279 367.498 62.8117C367.288 63.184 368.077 63.7675 367.931 63.9297C367.043 64.9002 365.179 62.4241 366.978 65.8934C367.088 66.1061 367.773 66.0204 367.794 66.0628C368.217 67.0462 366.955 67.1309 366.731 67.9357C366.344 69.3227 368.153 68.5499 366.648 69.5249C367.776 70.4324 368.407 70.3947 369.747 70.1419C366.051 70.8468 364.773 74.4369 368.847 74.3475C367.544 74.2914 367.691 76.3179 367.304 76.3534C367.061 76.3732 365.198 74.3575 366.051 78.8788C366.157 79.4436 367.294 78.7265 366.937 79.8822C364.216 79.5863 366.877 80.6177 366.882 80.7705C366.805 83.434 360.315 81.2491 359.085 81.551C357.744 81.9019 356.57 83.9989 356.283 84.0012C355.342 84.0009 356.124 82.9364 355.915 82.5444C355.697 82.1561 353.045 84.1934 352.919 84.081C352.412 83.6299 352.929 82.3682 352.877 82.3044C352.226 81.5299 348.549 82.5119 347.559 82.2161C347.586 83.0353 349.618 83.1043 348.347 84.4173C346.87 85.948 346.8 82.3371 346.761 82.1782C339.985 82.1978 333.23 82.2107 326.455 82.2164C326.534 84.1379 330.998 82.707 331.069 82.9599C331.701 84.4602 324.133 84.4022 323.275 83.7192C323.958 84.1372 324.646 84.5552 325.339 84.9732C324.138 87.1765 321.574 84.2955 319.8 85.2618C319.238 85.5751 320.31 86.4328 320.288 86.4908C319.651 87.3455 318.649 86.6797 319.407 85.5318C317.873 86.6276 318.104 85.4112 316.946 85.3138C316.887 85.3097 317.377 86.2034 316.463 86.5682C316.063 86.7385 313.699 86.7286 313.386 87.5063C313.255 87.8338 314.425 91.2963 314.591 88.3227C317.122 89.7863 315.408 86.9716 316.378 87.0451C316.529 87.0614 316.164 88.72 318.62 87.951C318.118 90.9426 315.378 88.6895 314.851 89.0492C313.86 89.7894 317.934 91.3573 318.71 89.0271C318.345 91.3617 318.999 89.3434 319.928 89.444C320.947 89.5531 320.5 90.2467 321.054 90.2531C322.579 90.2778 321.955 88.6256 323.159 90.1179C322.001 85.5098 325.231 89.52 326.205 90.7296C324.62 90.9565 323.114 91.1834 321.529 91.4096C321.62 91.6517 321.71 91.8939 321.801 92.136C321.378 92.0998 320.958 92.0635 320.539 92.0272C320.607 91.7959 320.676 91.5646 320.744 91.3333C318.579 92.8289 318.085 91.1335 317.91 91.1138C315.737 90.9064 313.067 90.9064 310.842 90.8878C310.498 90.885 310.756 92.3933 308.279 91.1989C307.48 90.8185 308.242 89.6511 307.336 89.8214C306.189 92.9991 306.23 90.4591 305.897 90.453C304.945 90.4474 304.368 91.2326 304.281 91.2404C303.151 91.3562 301.359 91.2126 300.075 91.3212C300.051 91.3331 300.717 92.3161 299.879 92.0209C299.577 91.9155 297.01 87.7211 294.651 89.0654C295.25 89.3518 295.855 89.6381 296.464 89.9244C295.719 89.5253 290.825 90.5421 292.014 91.6688C292.731 92.3575 294.552 89.6785 294.736 92.2688C293.136 91.483 283.991 92.5726 283.297 91.9655C283.2 91.8789 283.806 91.0435 283.672 90.935C283.559 90.8523 281.523 91.0357 281.233 90.7108C281.071 90.5179 281.996 90.0101 281.92 89.7069C281.878 89.4908 279.234 89.1108 279.09 90.1626C279.726 89.7448 281.54 90.1278 280.581 91.0079C280.457 91.1172 279.831 90.4333 279.683 90.572C278.298 91.8515 282.419 91.5734 283.016 91.5886C280.467 92.9105 276.516 91.2986 273.549 92.1512C272.369 91.2661 275.321 90.8237 273.981 90.0877C271.215 88.5624 273.232 91.294 273.144 91.4049C272.471 92.284 270.094 87.5286 270.076 91.135C269.068 90.5851 269.395 90.1326 267.979 90.5947C268.162 90.8458 268.346 91.0968 268.531 91.3478C266.936 93.4256 263.604 88.1344 263.868 87.7341C264.539 86.6621 266.277 88.3516 266.429 88.3123C266.648 88.2541 267.308 84.5985 269.682 87.8872C270.684 85.4396 265.878 86.2045 268.077 84.5465C266.569 84.8099 260.489 83.065 259.625 84.139C259.516 84.2791 260.005 86.727 258.495 85.4749C257.78 84.8788 259.511 84.8587 259.186 84.3C258.161 82.5776 244.57 83.6352 242.013 83.7426C241.846 83.7457 241.906 82.9866 241.742 82.9939C241.238 83.0159 239.404 84.153 238.506 83.8075C240.373 85.2052 236.759 85.3282 235.832 85.1797C234.438 84.9522 234.516 83.6163 233.911 83.3362C231.566 82.2558 227.982 85.4603 226.162 82.5168C226.3 85.4572 223.005 81.1108 221.544 81.1062C220.392 81.101 218.726 83.0735 220.315 84.236C218.331 84.1294 216.236 84.7126 214.385 84.9244C214.08 84.9599 214.485 84.0824 213.965 84.1704C213.917 84.1847 213.868 85.0383 213.419 85.1352C209.689 85.9485 211.467 84.1034 210.756 83.5841C210.366 83.2934 210.078 83.1508 209.867 83.1061C212.033 82.8957 214.559 82.5157 215.204 82.4805C214.638 80.606 210.362 82.9305 209.148 82.4498C209.105 82.4322 209.233 81.3917 209.19 81.3852C209.189 81.3852 209.188 81.3852 209.187 81.3853C208.731 81.3144 205.725 81.7616 206.371 82.9856C206.546 83.3125 207.942 83.2815 209.548 83.1367C209.117 83.3776 209.466 84.5333 209.39 84.5844C208.486 85.1772 206.087 84.0933 205.308 83.9578C205.122 83.9283 205.152 84.6727 205.122 84.6751C204.381 84.5224 204.636 82.3895 203.925 84.5993C202.523 81.9797 206.425 84.1495 206.107 82.4353C205.986 81.7448 203.626 81.66 201.311 82.0416C199.197 82.3895 197.312 83.1222 197.35 84.1179C197.315 83.8954 197.192 83.6213 196.947 83.3124C196.41 82.6251 193.98 82.9107 193.6 83.3069C193.534 83.3845 193.618 85.4095 193.534 85.4306C193.343 85.482 190.36 83.9796 189.326 85.2113C189.914 85.4771 190.509 85.743 191.11 86.0091C187.567 86.1349 188.171 86.7217 189.337 87.2907C189.395 87.2943 189.454 87.3694 189.51 87.3759C190.425 87.7956 191.627 88.1914 191.65 88.3507C191.699 88.9566 185.787 89.4845 186.855 87.57C187.029 87.3065 189.786 88.056 188.395 86.7582C188.179 86.5296 186.362 86.9723 186.274 86.8276C185.614 85.8651 189.468 84.4329 188.939 83.053C188.07 84.411 186.798 83.7514 185.733 84.1312C185.248 84.3029 185.165 85.3225 185.105 85.3437C184.222 85.6397 184.686 84.5577 184.39 84.5946C184.251 84.6174 182.517 86.9486 182.747 83.8127C177.03 86.33 181.177 86.1642 184.799 85.8622C183.758 87.0368 181.42 86.5714 180.483 86.8725C180.133 86.982 180.401 88.0153 179.788 88.248C178.514 88.7228 172.654 87.7766 171.077 87.576C171.992 87.1629 171.663 86.0413 170.948 86.1546C170.238 86.2684 170.911 87.7536 170.78 87.9233C170.668 88.0959 167.215 87.5564 166.681 87.7847C169.166 87.1014 168.553 85.9988 166.39 85.9972C166.688 85.654 166.995 85.3105 167.277 84.9687C166.016 85.494 163.29 83.9207 162.582 84.4806C162.474 84.57 162.939 85.496 162.878 85.5462C162.28 85.9867 160.048 85.156 159.977 85.4874C159.909 85.7629 160.877 86.5001 160.562 86.9146C160.487 87.0024 159.557 85.7725 158.693 86.1491C158.374 86.2877 158.633 87.173 158.555 87.2307C157.911 87.71 158.19 86.1689 157.006 86.4981C156.097 86.745 155.577 88.2705 154.299 87.8783C158.457 89.457 155.033 88.9202 153.402 89.6297C153.151 89.7425 153.503 91.3519 151.854 90.6936C155.008 87.4604 150.758 89.2136 149.877 89.268C149.828 89.2625 149.715 88.1896 149.287 88.2121C149.25 88.2166 149.369 88.9373 148.967 89.0312C145.233 89.925 147.572 88.87 146.781 88.2255C146.452 87.9497 144.73 89.1674 144.222 89.2502C144.108 89.2654 144.075 88.5069 143.641 88.5852C142.857 88.7277 142.263 89.6085 141.73 89.7358C141.667 89.7472 141.532 88.5588 140.568 89.065C140.292 89.2074 140.022 89.6676 140.471 89.9593C141.954 90.9162 144.184 88.6912 145.756 89.662C147.183 90.5417 143.045 91.0844 142.802 91.1255C142.721 91.1385 143.476 90.4543 142.628 90.4339C141.901 90.4192 140.82 92.6265 139.641 92.319C139.55 92.2965 138.431 90.6715 138.454 90.5658C138.488 90.4863 139.836 89.9376 139.573 89.4599C139.541 89.4056 138.653 89.5267 138.491 89.1669C138.298 88.7283 137.342 84.3084 137.132 84.2205C136.594 84.0061 137.049 84.9848 136.714 84.9544C136.006 84.8916 133.249 83.8857 133.322 85.4471C133.778 85.4864 134.23 85.5253 134.669 85.5653C132.256 86.0173 133.355 86.5528 133.045 86.8851C132.694 87.2446 132.649 85.8694 131.768 85.8394C131.644 85.8351 129.982 86.1411 128.86 86.5035C128.513 86.4456 127.451 86.7044 127.108 86.628C126.63 86.7759 126.284 86.951 126.313 87.1422C126.669 86.9429 126.928 86.8527 127.117 86.8362C127.463 86.9131 128.531 86.6526 128.88 86.7109C129.768 86.5899 129.387 87.7218 129.468 87.7382C129.854 87.8103 130.223 86.8159 130.714 86.7822C134.103 86.5565 130.875 88.4264 131.712 88.7217C132.003 88.8203 132.454 87.9519 132.572 87.98C132.958 88.071 133.087 89.1265 133.322 89.0125C133.866 88.7477 133.029 87.3309 133.065 87.2478C133.473 86.2533 135.518 87.1856 134.526 88.9546C135.312 89.4541 135.153 87.4687 135.802 88.1905C137.073 89.621 135.409 89.4187 134.972 89.7346C133.419 90.87 132.839 90.1779 130.264 90.7122C129.953 90.7752 129.628 90.9361 129.314 91.1262C128.917 91.0601 127.705 91.3557 127.313 91.2684C126.779 91.6099 126.29 92.0735 126.042 92.1195C125.804 92.1637 123.449 88.8956 123.6 94.1565C122.715 93.6828 121.231 90.2701 120.36 90.4621C119.575 90.6368 119.896 92.4878 119.825 92.5626C119.715 92.6801 118.752 92.5694 118.442 92.8441C118.077 93.1687 118.292 93.872 117.703 94.1835C116.234 94.9563 116.206 93.055 116.049 92.9371C114.231 91.5732 115.1 94.2473 114.715 94.4779C114.342 94.6915 109.215 93.8252 108.169 94.5436C108.592 94.1486 109.015 93.7536 109.438 93.3586C108.62 92.1998 107.855 94.1599 107.771 92.0356C107.728 95.4712 106.052 93.2312 105.572 93.3357C105.384 93.3784 105.418 93.9625 105.181 93.9955C104.262 94.1284 102.159 93.7317 101.673 94.0444C99.5552 95.3916 105.152 97.3324 105.599 97.4461C104.719 97.4372 99.8174 98.3676 102.134 99.9422C102.491 100.185 103.065 98.6295 103.26 98.563C104.581 98.1238 103.577 99.534 103.686 99.6614C103.871 99.8667 104.705 98.508 104.941 98.6588C105.021 98.707 104.559 99.9692 105.84 99.9533C105.247 101.182 101.641 100.315 101.188 100.614C101.025 100.721 102.151 103.267 99.0246 100.861C99.0677 101.1 99.1109 101.338 99.154 101.576C97.4677 101.731 95.7852 101.887 94.1076 102.043C94.2713 101.485 95.1784 100.344 93.9962 100.62C93.3161 100.78 93.8649 101.992 93.8038 102.029C93.1855 102.384 82.4042 102.37 80.3712 102.602C79.6693 102.676 77.7644 103.747 77.6175 103.773C76.7323 103.909 73.5747 103.411 72.9608 103.582C72.5768 103.69 72.9956 104.699 72.6467 104.668C72.3225 104.637 72.6077 103.629 72.51 103.592C71.6894 103.266 65.7735 104.882 64.32 104.035C65.1912 104.262 69.4124 102.045 69.2948 101.352C69.271 101.257 68.1736 100.557 67.9756 100.937C67.5684 100.097 66.4774 102.78 65.7819 102.304C65.703 102.251 65.9184 100.766 64.7087 100.568C64.291 100.501 63.284 101.707 62.1285 100.491C60.5907 101.189 52.3285 99.8568 51.9103 101.487C51.9004 101.571 53.0746 102.026 52.3594 102.731C51.4116 103.669 52.0979 100.705 50.8935 100.549C50.7056 100.523 47.4501 101.089 47.3603 101.279C46.5139 102.987 49.4196 103.399 49.3949 103.593C49.3338 104.075 46.997 104.565 46.8944 104.462C46.7912 104.354 48.5271 102.035 46.2877 103.054C46.5747 103.287 46.8618 103.521 47.1489 103.754C46.1084 104.35 45.8748 102.874 45.6024 102.807C44.7536 102.594 44.0958 104.932 42.5258 102.272C42.1085 101.566 42.6004 100.689 42.5468 100.582C42.0319 99.6275 41.7697 102.342 40.9499 100.419C40.8874 100.277 42.2147 98.9377 39.6846 99.1953C39.8785 99.3674 40.0739 99.5395 40.2663 99.712C40.0245 100.067 38.4664 100.459 37.6169 100.594C37.4693 100.623 37.3593 100.631 37.3123 100.613C36.7168 100.388 37.0398 98.9635 36.487 99.2003C37.0674 101.017 35.5029 101.492 35.3416 99.8836C35.4386 101.925 33.9078 100.612 33.312 100.707C32.9386 100.761 32.4423 101.807 32.314 101.737C32.148 101.65 31.8183 100.3 31.4769 100.076C31.3703 100.014 30.9429 101.195 29.7431 100.085C29.513 99.8696 28.4061 97.7601 28.5152 97.1002C28.7228 95.9613 30.1909 97.4933 29.7653 96.17C29.3313 94.7412 28.3296 95.988 27.885 95.9432C25.7933 95.7342 26.26 93.89 26.0749 93.4444C25.5643 92.3887 24.4066 92.8613 24.2877 92.7966C23.9058 92.4442 24.4649 91.2461 24.2209 90.5799C23.9361 89.6968 22.0838 88.6161 22.2547 88.2174C22.5454 87.6295 24.1069 88.5323 24.1355 88.4529C24.677 87.3019 22.7963 85.7086 22.0482 84.87C21.8265 84.608 22.0715 83.9497 21.9491 83.8944C20.0597 83.069 22.7301 86.808 21.6838 86.8896C20.6993 86.9856 21.3418 85.2327 21.2709 85.1776C21.2123 85.1081 20.1099 85.4519 19.7221 85.0697C19.6247 84.8367 21.3322 81.2581 20.7744 80.1666C20.0453 80.7236 19.2879 81.3056 18.4059 81.9377C17.7661 80.4726 19.5449 81.0443 19.5899 80.8519C19.7353 80.4423 18.7114 79.9694 18.5534 79.4895C18.4631 79.1797 18.9251 77.7748 17.9612 77.6389C17.6117 77.5981 17.4633 78.8584 15.8882 78.2403C19.152 75.41 16.2172 75.583 15.9105 75.0956C15.6031 74.608 16.896 72.6787 14.8148 73.7382C13.5946 70.8776 14.5089 72.8031 14.9308 72.0535C15.428 71.1424 13.3672 70.8351 16.3192 70.5363C15.6662 69.2234 13.5129 70.1673 13.3382 70.111C13.1983 70.0524 13.4382 69.1917 13.1733 69.0343C10.0308 67.2327 11.9544 67.8672 10.6986 66.4255C10.589 66.3017 8.33602 66.4151 9.78137 65.6082C12.3805 64.111 14.2276 65.5945 13.1425 61.2981C10.3681 60.299 8.99826 63.902 8.40073 64.1492C7.50064 64.5356 8.16674 63.3532 7.96231 63.1569C7.89448 63.0971 7.15865 63.4231 7.1264 63.3554C5.50887 60.3934 10.491 62.0817 11.7252 60.9578C11.1804 60.6276 10.6485 60.2937 10.1047 59.9645C10.5803 59.7584 11.0648 59.5492 11.5488 59.3429C8.85142 59.2972 11.3054 59.0221 10.9594 56.2444C10.8855 55.618 9.6491 57.2082 10.8773 54.926C9.38819 55.0684 9.6077 54.3912 8.70642 55.5617C8.3063 54.5441 10.6092 52.3363 11.6223 51.3922C7.17352 51.715 10.7899 54.651 6.88365 53.8834C6.81265 55.3598 8.15983 54.556 8.13222 54.8057C7.98309 55.7219 6.52918 54.9294 6.46492 57.9426C6.44948 58.4373 7.66133 59.5155 6.5585 59.8321C6.42068 59.8719 5.44088 58.9118 5.44457 58.8161C5.22494 57.8924 5.90315 58.0444 5.81189 57.6542C5.70034 57.2978 5.14672 57.7174 5.12894 57.6109C4.74969 56.4839 5.48065 57.0198 5.29396 56.6879C5.06533 56.3397 4.2801 55.7011 4.05213 55.0869C3.92067 54.7864 3.84872 54.5211 3.89172 54.3567C3.94728 54.1863 4.12528 54.126 4.95953 54.0275C3.32022 55.9845 4.85117 55.4891 5.96807 54.5055C6.21562 54.2734 6.04634 53.577 6.40544 53.1741C6.88256 52.6473 7.74872 52.6764 8.04232 52.4235C8.36767 52.1454 5.63519 51.3908 8.89289 50.6818C6.66682 49.7321 4.653 52.4536 3.57034 51.5617C3.01194 51.1214 2.91448 50.6465 2.80286 50.2794C2.70803 49.9057 2.67652 49.6111 2.81445 49.3265C3.04648 48.7772 4.16425 48.1527 4.3658 47.9505C4.46384 47.846 3.71546 47.1049 3.77466 47.0191C3.77221 46.9253 6.8227 46.2159 6.92247 45.3349C6.95084 44.4743 5.78161 45.8072 5.4075 45.0655C5.063 44.5894 8.70182 42.1771 6.40654 42.6241C4.75411 42.9605 3.26877 45.9545 2.18197 43.7853C3.58831 43.0355 5.75309 41.9559 7.98892 40.9542C6.40967 40.5416 4.84557 40.1512 3.39414 39.7282C5.62103 38.5583 8.36405 38.6582 10.6381 36.5702C3.2504 35.9013 12.0332 33.6282 12.1183 33.3037C12.1105 33.0747 8.71328 31.6096 8.15377 31.3426C10.1843 29.6424 17.7876 27.2696 12.5451 25.5705C13.537 25.9903 15.1597 23.9106 15.1061 23.7995C14.5508 22.5693 10.2933 24.5511 10.7226 23.2322C11.2004 21.6875 12.873 23.1576 14.1391 22.7006C20.6075 20.4671 17.6052 14.127 24.7289 14.1236C24.5584 13.9029 24.3874 13.6825 24.216 13.4624C25.4819 13.3495 26.6954 13.2619 27.9484 13.1868C32.4971 13.0072 36.9777 12.904 41.4067 12.855C43.2978 10.61 48.6835 8.93382 51.3615 8.988C51.9038 8.99463 54.6021 9.90901 54.8092 10.0881C55.1981 10.4293 53.1955 10.6975 54.1485 11.3231C54.3528 11.4478 58.7953 11.6344 58.4096 10.4978C57.9074 10.3922 56.3954 11.0678 56.1236 10.8112C54.2418 8.95294 67.8974 9.74735 68.4913 8.95576C68.1758 8.59388 67.8597 8.23214 67.5431 7.87054C68.4016 8.01398 69.2581 8.15853 70.1133 8.30407ZM39.8837 103.81C39.6114 104.862 38.6823 104.418 38.055 104.555C38.007 104.57 37.9634 104.597 37.9259 104.642C37.4882 105.151 37.4294 109.686 37.1095 105.196C37.4123 104.97 37.7154 104.749 38.0521 104.529C38.6579 104.288 39.2685 104.049 39.8837 103.81ZM59.5197 103.913C58.5636 103.349 59.1096 100.799 59.9294 101.791C60.0211 101.904 60.81 104.673 59.5197 103.913ZM49.938 103.421C49.9727 103.384 50.7544 103.388 50.7849 103.425C51.5607 104.372 49.2081 104.357 49.938 103.421ZM97.3443 99.7203C96.2749 99.8646 97.1289 102.118 97.7639 101.157C97.8039 101.096 97.4147 99.7126 97.3443 99.7203ZM96.579 99.6855C95.681 97.6725 94.1514 101.866 95.4648 101.404C95.5921 101.358 96.6207 99.7836 96.579 99.6855ZM56.2018 103.139C56.2496 102.35 57.2154 102.662 57.6299 102.822C57.6668 103.535 56.5899 103.023 56.2018 103.139ZM80.5141 101.604C80.5279 100.987 77.1344 101.166 76.9421 101.988C77.4597 101.619 80.4962 102.158 80.5141 101.604ZM89.261 100.4C89.1698 100.297 87.985 100.502 88.0399 101.044C88.647 101.734 89.6717 100.867 89.261 100.4ZM107.052 99.8347C107.114 99.6961 106.084 96.2736 108.328 98.4743C108.658 98.7965 107.548 99.7365 107.666 99.8566C107.911 100.09 108.101 100.197 108.253 100.212C107.253 100.532 106.21 100.701 106.102 100.495C105.592 99.5213 107.025 99.8925 107.052 99.8347ZM116.499 96.936C116.692 96.3653 118.057 96.6172 118.372 96.8376C118.427 96.8793 118.251 98.3679 118.856 98.2347C119.341 98.1251 118.552 96.6366 119.517 96.8434C120.497 97.0503 119.241 98.1795 119.328 98.2534C119.446 98.3503 120.921 97.6127 120.907 98.4959C120.9 99.1503 119.267 98.7701 118.884 98.923C118.386 99.12 119.039 100.185 118.185 99.9828C117.648 99.8563 117.873 97.9323 117.757 97.8398C117.661 97.7655 115.843 98.9333 116.502 96.9419C116.501 96.9399 116.5 96.938 116.499 96.936ZM108.525 100.118C108.451 100.186 108.363 100.223 108.253 100.212C108.345 100.183 108.436 100.15 108.525 100.118ZM42.3291 102.717C42.844 103.259 41.5627 104.146 40.976 103.43C40.9021 102.81 42.2459 102.632 42.3291 102.717ZM109.414 98.5288C110.935 98.9576 109.852 99.6541 108.525 100.118C108.939 99.744 108.903 98.3856 109.414 98.5288ZM67.9756 100.937C68.0429 101.077 68.0927 101.297 68.117 101.662C67.9387 101.271 67.9131 101.057 67.9756 100.937ZM71.3222 101.418C72.4061 100.248 70.093 100.409 70.1494 101.205C70.1715 101.505 71.2785 101.464 71.3222 101.418ZM98.7233 99.783C98.6113 99.6776 100.181 96.2592 97.8235 98.8638C99.14 99.2165 97.7773 99.6286 97.8074 99.9224C97.889 100.767 100.05 99.8805 100.552 100.23C100.884 98.7033 99.0892 100.13 98.7261 99.7829C98.7251 99.7829 98.7242 99.783 98.7233 99.783ZM137.21 96.3216C137.018 97.2399 135.971 97.0809 135.247 97.1148C135.48 96.193 136.55 96.3506 137.21 96.3216ZM299.066 92.2993C294.693 93.0897 294.103 89.4697 298.142 90.9272C298.218 90.9578 299.333 91.9347 299.066 92.2993ZM261.469 91.092C261.068 89.514 262.424 89.2681 263.324 89.9244C263.529 90.072 264.252 91.6724 263.409 91.9794C263.447 90.0697 262.121 89.3322 261.469 91.092ZM110.231 97.4917C110.629 96.4269 112.016 97.1283 112.734 97.2615C112.33 98.1412 110.864 97.7995 110.231 97.4917ZM284.626 90.3078C284.161 90.1849 283.839 91.5534 283.918 91.6681C284.271 92.194 285.15 91.0923 284.626 90.3078ZM105.879 97.4731C105.798 96.8475 107.556 96.1846 107.731 97.7323C107.348 97.6327 105.937 97.8655 105.879 97.4731ZM135.873 96.0106C135.542 95.7295 137 94.9755 137.465 95.2367C137.52 95.9037 136.105 96.192 135.873 96.0106ZM277.193 90.7161C276.801 90.5941 275.734 90.5497 275.62 91.1031C275.467 91.7947 277.017 91.5703 277.193 90.7161ZM354.524 89.9146C354.568 90.1637 353.012 91.9557 352.278 91.5004C350.915 90.6295 354.481 89.7389 354.524 89.9146ZM289.013 89.6342C290.314 90.9478 288.867 89.6742 288.915 91.0475C289.789 91.1035 292.016 91.1878 290.498 89.8266C290.202 89.5632 289.422 89.7261 289.013 89.6342ZM287.817 89.1659C287.674 89.6095 286.735 91.0045 287.539 90.9102C287.911 90.8644 288.525 89.3111 287.817 89.1659ZM344.584 90.5062C343.427 89.2882 348.728 89.9522 348.905 90.165C348.987 90.2776 349.041 90.3837 349.071 90.4735C349.27 90.0887 350.297 90.0212 350.415 90.9957C350.105 90.9147 349.266 90.9988 349.169 90.8907C349.128 90.8446 349.096 90.8014 349.075 90.7575C348.7 91.6028 344.791 90.7373 344.584 90.5062ZM335.637 89.2301C337.033 87.4417 337.214 90.4906 337.11 90.5884C335.659 91.8315 336.608 89.5863 336.571 89.4809C336.465 89.3054 335.399 90.3451 335.641 89.2301C335.64 89.2301 335.638 89.2301 335.637 89.2301ZM342.724 90C342.779 89.9605 343.93 90.0577 343.979 90.1059C344.92 91.1328 341.663 90.8622 342.724 90ZM123.713 94.5269C124.556 94.7957 123.788 95.9498 123.217 95.569C123.17 95.531 122.969 94.2891 123.713 94.5269ZM287.179 89.4632C287.021 89.2501 282.189 88.4139 282.489 90.1101C282.865 89.9132 288.349 90.827 287.179 89.4632ZM251.694 88.8277C252.518 88.8429 251.616 90.4381 251.176 89.8416C251.013 89.6201 251.486 88.8249 251.694 88.8277ZM103.44 96.1024C102.594 97.0084 102.678 94.0596 103.469 95.0434C103.501 95.0819 103.473 96.067 103.44 96.1024ZM258.324 89.7705C255.448 90.726 256.142 85.663 259.881 87.3913C259.763 87.6163 259.646 87.8413 259.53 88.0663C263.818 88.849 259.823 88.4244 258.763 88.7031C258.358 88.8089 258.693 89.6559 258.327 89.7766C258.326 89.7746 258.325 89.7725 258.324 89.7705ZM247.341 88.7242C244.594 85.1281 249.83 87.4711 251.351 87.008C249.879 88.4891 247.98 88.2617 250.566 89.786C246.783 90.0736 248.363 88.645 248.211 88.5255C248.033 88.3918 247.457 88.8786 247.341 88.7242ZM254.6 88.7156C254.764 88.6113 255.958 89.3477 256.389 89.2301C255.787 90.4555 253.534 89.4251 254.6 88.7156ZM326.245 90.0288C326.352 89.067 326.604 88.3594 327.582 88.7231C327.277 89.2053 326.652 89.6186 326.245 90.0288ZM38.5218 98.8629C38.2145 98.8605 37.7463 98.7989 37.426 98.8686C37.2418 98.9218 37.1504 99.1 37.3103 99.5793C37.3203 99.6044 37.399 99.6046 37.5044 99.5772C37.914 99.4956 38.5626 99.2569 38.5218 98.8629ZM273.314 88.5781C273.195 88.4588 269.537 88.3531 270.791 89.4239C271.184 89.7468 274.462 89.6349 273.314 88.5781ZM292.187 88.842C291.907 88.8299 290.62 89.0016 290.599 89.2291C290.503 90.0151 292.071 89.5942 292.187 88.842ZM36.2027 98.1411C36.1382 98.0459 35.144 98.3747 35.3352 98.8194C35.6707 99.6567 36.3926 98.4609 36.2027 98.1411ZM126.654 92.1476C126.828 92.1044 127.104 93.1385 127.165 93.1475C127.186 93.1487 127.27 93.1385 127.394 93.1243C127.806 93.216 129.079 92.9056 129.495 92.9751C130.412 92.8375 132.929 92.4297 131.843 93.7043C131.755 93.8065 130.797 93.88 129.588 93.9191C129.162 93.848 127.858 94.1659 127.436 94.072C126.016 94.0208 124.241 93.8822 123.893 93.818C123.601 92.3942 125.626 93.6767 126.103 93.508C126.186 93.4763 126.19 92.2748 126.653 92.1537C126.653 92.1516 126.654 92.1496 126.654 92.1476ZM331.286 89.0337C331.413 88.1221 335.081 87.531 335.045 88.636C333.775 88.7687 332.522 88.9013 331.286 89.0337ZM329.462 88.8756C328.704 88.2274 330.487 88.0209 331.02 88.3075C331.022 88.9212 329.571 88.9705 329.462 88.8756ZM285.287 85.3819C284.915 85.6021 286.044 86.9418 285.787 87.1986C285.621 87.3584 284.799 86.8533 284.535 87.2675C284.459 87.3993 285.289 88.6568 285.534 88.6046C285.882 88.5351 285.553 87.548 285.932 87.5441C287.2 87.5326 288.243 88.2428 289.419 88.2353C289.525 88.2327 288.713 87.5312 289.612 87.5478C289.751 87.549 290.579 88.5909 291.677 88.4455C294.011 85.2553 295.818 88.4177 298.79 87.2818C298.682 86.9791 296.458 86.1534 296.307 86.1223C293.775 85.5771 289.25 85.4855 286.67 85.4589C285.987 85.4509 286.313 86.1323 286.017 86.1549C285.784 86.1715 286.069 84.9166 285.287 85.3819ZM38.7637 98.1381C38.4472 97.2144 37.8452 97.5072 37.2974 97.7057C37.1911 97.7614 37.0893 97.8078 36.9954 97.8031C37.0912 98.2016 37.2202 98.3339 37.3688 98.3512C37.7977 98.3638 38.346 98.0033 38.7637 98.1381ZM313.029 87.8246C312.669 87.871 311.569 87.4866 311.478 87.8641C311.356 88.357 312.946 88.6775 313.029 87.8246ZM146.316 90.3751C146.348 90.337 147.088 90.3288 147.125 90.365C147.894 91.2992 145.634 91.3236 146.316 90.3751ZM164.897 89.1739C165.484 88.9848 166.083 88.5585 166.347 89.5641C165.94 89.4301 164.866 89.8862 164.897 89.1739ZM191.942 88.0217C191.797 86.6911 193.666 87.5012 194.036 87.6108C193.91 88.2071 192.086 88.9788 191.942 88.0217ZM326.121 85.8406C327.323 85.9246 327.078 83.9029 327.844 84.8205C327.97 84.9756 328.356 89.1849 327.032 87.6029C326.796 87.3185 327.73 86.3225 326.121 85.8406ZM260.485 87.4368C260.788 86.5559 261.721 86.8229 262.359 86.8973C262.211 87.5521 260.932 87.3762 260.485 87.4368ZM34.2114 97.4369C33.6938 96.259 32.6364 97.4281 33.1238 98.1668C33.1788 98.2615 34.0123 97.4219 34.2114 97.4369ZM113.154 93.3653C114.191 92.3478 111.964 92.1208 111.292 93.1026C111.608 93.0291 113.085 93.4324 113.154 93.3653ZM185.327 87.5067C185.372 87.4648 186.468 87.5224 186.521 87.5691C187.45 88.5627 184.355 88.4051 185.327 87.5067ZM158.533 87.953C158.881 87.1181 161.368 87.6069 161.995 88.3794C161.512 89.5894 158.148 88.9885 158.533 87.953ZM321.227 86.3926C322.113 86.355 322.884 86.6073 323.658 86.9598C323.495 87.6389 321.337 86.901 321.227 86.3926ZM189.337 87.2907C189.395 87.2943 189.454 87.3694 189.51 87.3759C189.451 87.349 189.393 87.3178 189.337 87.2907ZM302.157 85.806C301.434 85.5327 301.577 86.7792 301.621 86.8177C302.161 87.2247 302.978 86.1145 302.157 85.806ZM37.834 96.3785C37.6831 95.8983 37.4082 95.8189 37.0938 95.8645C36.8363 95.9066 36.5588 96.1497 36.3318 96.0275C36.479 96.6064 36.842 96.6468 37.1714 96.5665C37.4311 96.5159 37.6724 96.4354 37.834 96.3785ZM244.398 86.4222C243.517 85.2038 247.093 83.7864 247.846 84.5732C247.905 85.3256 244.523 86.5882 244.398 86.4222ZM109.768 91.7936C109.667 90.9158 108.164 92.0295 108.505 92.4345C108.721 92.6922 109.83 92.3391 109.768 91.7936ZM249.643 85.0891C249.98 84.8208 250.765 85.6915 250.487 86.2206C250.13 86.8988 249.556 85.1659 249.643 85.0891ZM280.073 84.5563C279.919 84.4205 277.911 85.3092 278.731 86.2138C279.299 86.8425 279.402 85.5701 279.538 85.5674C279.682 85.5725 282.94 87.1557 280.073 84.5563ZM224.458 85.7819C225.201 85.4341 226.103 85.8169 226.874 85.7843C226.568 86.3321 224.787 86.5011 224.458 85.7819ZM115.721 91.3526C115.519 91.0045 110.434 90.9654 113.352 91.9618C113.523 92.0182 116.328 92.4106 115.721 91.3526ZM326.121 85.8406C325.97 85.83 325.796 85.7873 325.595 85.6994C325.795 85.7345 325.969 85.7949 326.121 85.8406ZM312.558 85.6404C312.836 85.0009 311.451 84.8216 311.047 85.1605C310.915 85.943 312.517 85.7299 312.558 85.6404ZM226.923 84.8894C227.362 84.5177 228.178 84.9009 228.736 84.8527C228.646 85.4495 227.119 85.4926 226.923 84.8894ZM195.371 84.8234C196.291 85.1526 197.367 84.9616 197.362 84.2324C197.383 84.3459 197.429 84.4657 197.502 84.5854C197.575 84.7039 198.508 84.3407 198.93 84.5792C201.451 85.9894 189.369 85.7035 196.337 83.4554C196.013 83.9114 195.69 84.3674 195.371 84.8234ZM155.091 86.4832C154.563 85.633 153.303 86.8495 153.681 87.1699C153.935 87.3887 155.634 87.3373 155.091 86.4832ZM173.744 84.8557C173.602 84.7032 172.267 85.3873 172.251 85.8562C173.085 86.3097 174.434 85.5611 173.744 84.8557ZM151.388 85.7421C151.086 85.6337 150.849 87.0914 150.884 87.1509C151.224 87.6452 151.942 86.4941 151.388 85.7421ZM323.677 81.9746C323.204 81.5627 321.69 82.5915 321.325 83.5349C321.263 83.3518 321.092 83.1127 320.781 82.8253C320.782 82.8253 320.783 82.8253 320.783 82.8253C320.338 82.443 307.914 81.9584 316.275 83.8238C316.532 83.8834 316.183 83.0333 317.231 83.1882C317.3 83.1995 317.331 83.8923 317.546 83.9271C318.033 84.0029 320.703 84.452 321.258 83.8971C321.262 84.0255 321.296 84.1478 321.371 84.2602C322.07 85.2625 324.034 82.2923 323.677 81.9746ZM176.443 84.6105C176.152 84.3658 175.281 84.6473 175.22 85.2618C175.667 85.5418 177.1 85.1819 176.443 84.6105ZM115.474 88.852C114.873 88.3706 113.417 89.3616 113.884 89.8452C114.173 90.1428 116.17 89.4049 115.474 88.852ZM167.825 85.3449C171.028 85.9025 168.574 85.2474 169.013 84.3271C168.611 84.6664 168.215 85.0056 167.825 85.3449ZM339.042 84.346C338.518 84.1383 339.138 82.3715 339.716 83.3328C339.898 83.6381 339.335 84.459 339.042 84.346ZM362.984 83.8383C362.538 82.2698 364.718 83.1926 363.867 84.2679C363.827 84.3041 363.015 83.898 362.984 83.8383ZM346.261 83.1741C345.905 84.2412 345.672 84.3673 344.683 84.1011C346.151 83.8037 344.789 82.8562 346.261 83.1741ZM197.35 84.1179C197.356 84.1609 197.362 84.1926 197.362 84.2324C197.355 84.1933 197.351 84.1562 197.35 84.1179ZM148.604 86.2736C148.137 85.4087 147.124 85.5753 147.518 86.4514C147.554 86.5323 148.508 86.9536 148.604 86.2736ZM321.325 83.5349C321.381 83.6972 321.352 83.8018 321.258 83.8971C321.254 83.7762 321.279 83.6622 321.325 83.5349ZM154.206 85.0489C154.236 85.7228 155.854 85.8618 155.921 85.778C156.77 84.5412 154.885 84.9535 154.206 85.0489ZM103.663 88.3018C103.574 88.3752 104.219 90.097 104.557 89.403C104.818 88.8645 103.996 88.0227 103.663 88.3018ZM349.691 82.7461C350.257 82.7483 351.06 82.7489 351.207 83.5766C350.823 83.449 349.678 83.3532 349.691 82.7461ZM362.137 82.7017C361.515 83.6741 359.932 83.67 358.96 83.5087C358.927 82.2282 361.571 83.0025 362.137 82.7017ZM325.186 82.4587C325.139 82.4064 323.744 82.0182 323.931 82.8762C324.202 84.1343 325.58 82.9266 325.186 82.4587ZM106.425 89.1358C107.035 88.525 105.527 86.7598 104.906 88.1823C104.588 88.9107 106.323 89.2382 106.425 89.1358ZM145.235 85.4211C144.544 85.9928 146.483 86.677 146.638 85.762C146.293 85.7243 145.485 85.2178 145.235 85.4211ZM171.391 82.6364C168.783 80.1755 170.369 84.8195 170.782 84.384C170.839 84.3219 171.454 82.6942 171.391 82.6364ZM29.8202 93.1472C29.7319 93.5436 30.7649 94.6101 30.6408 93.7593C30.5641 93.2247 29.8839 92.8908 29.8202 93.1472ZM209.867 83.1061C209.76 83.1166 209.654 83.1272 209.548 83.1367C209.627 83.0929 209.731 83.0771 209.867 83.1061ZM137.926 82.7828C140.14 86.1874 139.581 83.4234 139.742 83.419C140.084 83.4171 140.919 84.3109 141.512 84.0788C140.862 84.5683 140.24 85.0566 139.585 85.5502C140.21 85.7322 144.963 86.5415 144.979 85.9526C145.032 85.0987 143.61 85.519 143.562 85.4506C143.49 85.3521 143.005 83.0486 142.862 82.975C142.622 82.8534 138.703 83.2696 137.926 82.7828ZM166.197 83.3087C166.618 83.5645 166.793 84.4848 166.962 84.2534C167.019 84.1743 166.981 83.2896 167.18 83.0495C166.869 83.1348 166.527 83.2219 166.197 83.3087ZM135.017 86.4481C134.35 85.4402 136.817 85.5507 136.886 85.6637C137.381 86.3414 135.594 87.2687 135.017 86.4481ZM153.329 84.3308C153.255 84.2726 151.575 84.0734 151.642 84.6711C152.124 85.0875 154.309 85.0446 153.329 84.3308ZM167.439 82.9752C168.032 83.0468 169.228 83.8783 169.029 82.5535C169.028 82.5536 169.027 82.5536 169.026 82.5536C168.488 82.694 167.959 82.8346 167.439 82.9752ZM108.491 86.2498C107.244 84.1666 107.891 86.8299 108.954 87.4798C109.237 86.5164 108.695 86.5887 108.491 86.2498ZM104.69 84.7915C104.357 84.4202 101.022 84.9488 101.572 86.055C101.763 86.4493 103.658 85.3766 103.747 85.4513C103.885 85.562 103.313 86.8245 104.329 86.5446C104.256 86.1257 104.805 84.9154 104.69 84.7915ZM107.473 84.9233C106.26 83.3477 106.096 86.3332 106.97 86.3124C107.312 86.3064 107.646 85.1507 107.473 84.9233ZM112.252 85.0162C111.824 84.7483 110.681 84.375 109.948 85.3908C110.98 85.4407 112.025 85.4898 113.058 85.5387C113.157 84.9737 112.629 85.2517 112.25 85.0163C112.251 85.0163 112.252 85.0162 112.252 85.0162ZM369.114 75.0727C368.174 74.228 370.342 73.9045 370.437 74.112C370.711 74.8009 369.534 75.45 369.114 75.0727ZM16.2748 69.1457C15.925 68.9172 15.3972 67.9315 15.0837 68.6722C15.8925 69.2387 16.6848 69.8147 17.4531 70.4041C17.1936 68.5037 16.6601 69.3972 16.2748 69.1457ZM11.8496 63.5072C11.9104 63.4351 10.4513 60.9095 12.1236 62.326C13.2365 63.2842 10.1445 65.8529 9.05449 64.8776C9.5551 64.0678 11.3337 64.1037 11.8496 63.5072ZM3.61174 53.2597C3.60057 53.1445 3.45269 53.0278 3.43041 52.9388C3.39858 52.8518 3.49158 52.7816 3.53976 52.8515C3.81078 53.2162 3.78766 53.6513 3.71132 53.8255C3.62085 54.0022 3.65469 53.8756 3.61174 53.2597ZM5.70172 53.1009C4.95365 52.7867 6.03968 51.9877 6.5948 52.116C6.81988 52.6044 5.80257 53.151 5.70172 53.1009ZM359.799 33.3369C359.058 31.3779 358.392 35.5928 359.533 34.7446C359.588 34.7047 359.831 33.4328 359.799 33.3369ZM2.82291 50.4545C2.9506 50.7089 2.96845 50.9434 2.9723 51.0665C2.97032 51.1905 3.07336 51.1743 3.15765 50.9958C3.12149 50.7298 2.9413 50.5909 2.86438 50.5143C2.78087 50.4389 2.80519 50.4173 2.82291 50.4545ZM359.281 28.6714C358.299 27.2613 358.641 31.991 358.763 32.1817C359.265 32.9349 361.015 31.0802 361.377 30.619C358.751 31.3265 359.747 29.3358 359.281 28.6714ZM354.797 31.5061C353.907 32.0094 356.179 32.9775 356.624 31.6596C356.176 31.7222 355.049 31.3607 354.797 31.5061ZM349.319 29.9803C348.831 29.81 347.396 29.4015 347.157 30.1451C347.679 30.0116 349.111 30.7456 349.319 29.9803ZM348.226 27.7484C347.473 26.7357 347.287 29.6814 348.158 28.8057C348.192 28.7718 348.253 27.8047 348.226 27.7484ZM344.011 26.6755C343.506 25.5026 342.922 28.3543 343.743 28.4332C343.987 28.4514 344.065 26.8099 344.011 26.6755ZM358.059 23.5822C357.344 23.0783 356.424 25.1204 357.947 25.3465C357.41 25.6581 356.876 25.9697 356.345 26.2812C358.329 27.4289 358.194 24.5951 358.768 24.7129C359.575 24.8802 359.51 27.2183 359.347 27.9524C360.031 26.5206 362.798 26.5 364.378 26.228C362.98 25.6261 360.734 24.5822 359.294 24.1998C358.891 24.0891 358.5 24.73 358.159 24.6579C357.612 24.5388 358.099 23.6161 358.061 23.5822C358.06 23.5822 358.059 23.5822 358.059 23.5822ZM338.397 26.6179C336.968 25.2863 337.863 28.1545 338.678 27.646C338.713 27.6068 338.433 26.6504 338.397 26.6179ZM2.6012 41.6805C1.6716 42.0897 1.47599 42.4804 1.31858 42.7942C1.17623 43.1102 1.14032 43.3614 1.059 43.5081C0.984186 43.6531 0.867157 43.6968 0.799697 43.5386C0.740949 43.3763 0.744332 43.012 1.16807 42.2109C0.824798 44.1542 1.51975 43.3901 1.5803 44.1008C1.57908 44.6823 1.06263 44.3828 1.64395 45.3425C1.28787 44.8433 0.850956 44.7215 1.53267 44.4607C2.10457 44.1888 4.2648 44.0659 4.4638 44.0028C4.46034 44.0028 4.45689 44.0028 4.45343 44.0028C4.73625 43.8964 3.93095 41.1622 2.6012 41.6805ZM349.326 22.4874C348.845 19.0096 348.641 24.5277 347.695 21.6442C346.412 25.8261 351.211 21.6518 351.817 25.1869C346.529 24.767 355.316 28.695 351.622 23.3979C354.651 25.3231 352.615 22.7443 353.085 22.0709C353.566 21.3536 355.232 22.1364 355.15 20.8412C355.149 20.8412 355.149 20.8412 355.148 20.8412C354.112 20.9304 353.15 21.0196 352.07 21.1085C353.101 23.9038 350.937 23.0626 350.221 20.785C349.922 21.3525 349.624 21.9199 349.326 22.4874ZM355.19 25.1195C355.086 25.0555 352.874 25.4437 353.018 26.0046C353.304 26.3628 356.462 25.9384 355.19 25.1195ZM365.096 24.5182C364.289 24.5111 363.056 23.9653 362.624 25.0183C363.417 25.026 364.656 25.572 365.096 24.5182ZM323.481 24.2169C322.462 25.0767 325.59 25.3469 324.689 24.3191C324.643 24.2707 323.53 24.1768 323.481 24.2169ZM346.988 23.0083C345.955 21.9435 346.436 25.3266 347.206 24.4469C347.251 24.3951 347.036 23.0569 346.988 23.0083ZM0.534204 41.6282C0.395814 41.2324 -0.0544464 41.3019 0.128965 41.2883C0.265653 41.2879 0.872785 41.2168 1.0445 41.1469C1.08706 41.5434 0.574358 42.0557 0.43786 42.19C0.246453 42.3395 0.658472 42.0827 0.534204 41.6282ZM366.52 21.4189C364.902 18.4389 362.752 21.8789 362.519 21.8036C362.286 21.7268 362.653 20.4246 362.6 20.3896C362.497 20.3166 359.945 20.4238 359.811 20.5142C359.722 20.5848 360.186 22.4156 359.654 22.9916C360.754 21.9529 365.265 22.6064 365.53 22.4035C365.717 22.2416 364.312 20.319 366.517 21.4189C366.518 21.4189 366.519 21.4189 366.52 21.4189ZM361.934 21.4043C362.558 22.172 360.804 22.2667 360.349 21.9831C359.371 21.3487 361.888 21.3134 361.934 21.4043ZM357.619 20.6932C357.413 20.521 355.589 20.3624 355.436 21.2163C356.29 22.3254 358.08 21.0947 357.619 20.6932ZM337.293 20.7651C336.854 20.8732 335.487 20.2124 335.418 20.9585C335.902 20.8513 337.234 21.5114 337.293 20.7651ZM5.38155 32.8262C4.14935 32.5985 6.43832 31.5195 7.25829 31.5715C7.44696 32.0287 5.47805 32.8439 5.38155 32.8262ZM346.828 15.8715C346.594 15.6444 340.781 16.1965 339.993 16.5433C340.76 17.1103 346.524 17.1679 346.734 16.8925C346.809 16.8102 346.863 15.9073 346.828 15.8715ZM359.244 15.5466C359.779 14.4481 360.128 15.7665 360.195 15.7832C360.869 15.952 362.211 15.7052 361.914 16.7635C360.783 16.3357 358.172 17.7281 359.244 15.5466ZM336.911 15.7908C334.946 16.1924 338.678 17.3621 338.185 16.2116C338.153 16.1421 337.106 15.7486 336.911 15.7908ZM347.464 15.5526C347.852 14.6657 353.732 15.4422 354.569 15.4443C353.741 17.0811 353.146 15.836 351.987 15.9177C351.681 15.9416 351.762 16.6232 351.729 16.6242C351.201 16.6549 351.597 15.8685 351.272 15.856C351.053 15.8505 346.851 16.8027 347.464 15.5526ZM359.55 14.7855C359.9 14.156 363.462 13.8901 363.595 14.0575C364.661 15.3035 359.872 15.0054 359.55 14.7855ZM346.945 14.0952C347.553 12.1929 350.407 13.4734 348.452 14.4186C348.265 14.5046 347.481 13.6777 346.945 14.0952ZM337.119 13.9786C337.049 13.9224 334.956 13.5351 334.926 14.1406C335.23 14.3772 338.206 14.5978 337.119 13.9786ZM338.157 11.9333C338.109 11.9477 338.572 13.1157 337.639 12.965C337.551 12.9508 337.452 11.638 336.221 12.1146C335.972 12.2127 335.586 13.0797 335.614 13.1338C336.932 15.1982 340.563 11.2637 338.157 11.9333ZM359.617 13.7221C359.422 13.1678 359.896 11.5239 360.324 12.3571C360.507 12.7168 360.163 13.7033 359.617 13.7221ZM330.661 13.4244C331.833 12.4316 328.166 12.2289 327.946 12.4831C328.072 13.1049 330.561 13.5215 330.661 13.4244ZM5.4148 24.6843C5.41345 24.6847 5.41211 24.6851 5.41076 24.6856C6.91603 24.4355 6.27755 25.5146 6.35621 25.5161C9.76221 25.722 8.41869 24.1923 8.8459 23.8279C9.76064 23.0644 10.2224 25.3005 11.7319 23.9106C9.17774 26.06 11.6933 24.7592 11.9735 25.5287C13.1806 28.6243 7.719 25.1012 6.49349 26.2527C6.32745 26.4054 8.08475 26.9593 7.67515 27.4048C6.37254 28.8207 -0.197262 25.6822 5.4148 24.6843ZM360.655 12.2123C361.174 11.2384 364.557 12.1858 363.658 12.988C363.515 13.1167 359.992 13.6322 360.655 12.2123ZM195.765 10.8846C196.586 10.0198 194.62 9.07889 194.241 9.7459C194.074 10.0774 195.405 11.264 195.765 10.8846ZM181.601 7.7033C180.598 7.90976 179.581 11.4659 180.88 10.873C181.029 10.8079 181.732 8.18678 181.601 7.7033ZM248.9 8.41802C247.839 7.16001 247.901 9.49525 248.68 9.46314C248.955 9.45221 248.934 8.45783 248.9 8.41802ZM208.146 9.10258C208.041 9.02309 206.817 9.19728 206.872 9.73301C207.336 10.0453 208.84 9.64827 208.146 9.10258ZM249.239 8.08612C248.608 8.50614 249.689 10.1964 250.465 8.54741C250.072 8.682 249.303 8.04319 249.239 8.08612ZM344.841 8.92997C344.331 9.88764 342.82 9.59417 341.978 9.75669C341.882 8.51424 344.244 9.15386 344.841 8.92997ZM186.028 8.97003C185.1 9.87557 187.173 10.5268 186.952 9.37619C186.922 9.31415 186.064 8.93149 186.028 8.97003ZM282.902 8.15361C282.216 8.88938 284.371 9.9025 283.786 8.59549C283.756 8.54215 282.939 8.11267 282.902 8.15361ZM292.456 8.65506C291.924 8.4012 289.677 8.46129 290.546 9.19075C290.676 9.30285 292.414 9.33351 292.456 8.65506ZM8.68288 22.9437C7.89686 21.8394 10.4592 21.4228 10.8588 21.5546C11.0161 21.6049 9.67212 24.3783 8.68288 22.9437ZM241.981 8.22073C241.429 8.38132 239.994 8.08178 239.744 8.75215C240.421 8.61121 242.165 9.55383 241.981 8.22073ZM190.47 8.82909C189.619 7.46625 188.11 7.6487 188.538 9.44839C190.15 9.27882 188.314 7.82528 190.47 8.82909ZM252.784 6.6011C252.344 6.49409 252.004 8.2332 252.053 8.31528C252.526 9.09635 253.219 7.27931 252.784 6.6011ZM219.53 8.21002C219.496 7.46674 218.058 7.82558 218.264 8.30122C218.322 8.46092 219.562 8.81127 219.53 8.21002ZM326.658 8.44719C326.022 7.76582 327.975 7.11054 328.56 7.90516C328.837 9.048 326.734 8.52553 326.658 8.44719ZM264.955 7.09327C265.031 5.99014 262.835 6.60087 263.697 7.5207C263.922 7.75088 264.927 7.46205 264.955 7.09327ZM285.834 5.92211C284.372 7.22693 290.47 8.20756 288.878 6.5556C288.77 6.43797 285.976 5.81209 285.834 5.92211ZM295.802 6.81823C295.552 6.67143 295.7 2.96446 296.741 4.40175C296.878 4.58816 296.225 5.56374 296.337 5.78873C296.403 5.91702 298.682 6.45387 298.767 6.36785C298.877 6.27032 298.756 5.08101 298.869 4.94849C298.994 4.80039 300.361 5.85384 301.093 5.87018C302.471 5.89907 302.635 4.91089 302.748 4.90838C303.08 4.90402 303.645 5.61011 304.286 5.6134C307.6 5.62732 312.7 4.81898 315.394 6.93052C312.97 6.07519 310.814 6.95629 308.425 7.21667C309.126 5.15626 304.938 8.78595 307.387 6.41867C306.253 6.92951 296.7 7.27829 295.805 6.81825C295.804 6.81824 295.803 6.81824 295.802 6.81823ZM177.471 6.81487C178.08 5.52381 174.762 5.93873 174.558 7.41433C174.979 7.59969 177.433 6.9593 177.471 6.81487ZM192.389 3.23746C192.685 3.01078 192.906 0.528515 194.545 1.74051C194.547 1.74048 194.548 1.74044 194.55 1.7404C195.01 2.09492 194.512 2.71123 194.601 2.92384C194.632 3.0107 196.076 4.20451 194.909 4.43298C193.095 4.78484 194.697 2.59682 193.71 2.59696C193.583 2.59806 191.767 3.98809 191.886 4.27912C191.897 4.31304 192.444 4.01436 192.54 4.134C192.9 4.58367 192.752 5.36082 192.802 5.39623C192.974 5.4852 195.85 4.09187 196.287 5.23154C196.455 5.59673 191.678 6.5798 191.497 6.39376C191.376 6.27564 191.365 4.13003 191.238 3.92258C191.168 3.81919 189.31 4.67713 189.026 4.48862C188.95 4.4338 188.892 4.37403 188.849 4.32462C189.162 4.97904 187.399 4.98456 187.433 4.23457C187.453 3.9394 188.668 4.0729 188.716 4.12307C188.735 4.14427 188.753 4.17378 188.769 4.19402C188.526 3.39105 192.539 3.31209 191.64 2.13396C192.798 1.44198 191.521 3.90362 192.389 3.23746ZM198.009 1.76732C197.891 1.99585 197.775 2.22438 197.658 2.45292C198.215 2.28966 198.803 2.24596 199.415 2.26783C201.047 2.32716 202.776 2.86388 204.462 2.82139C205.07 2.80783 204.341 1.4435 205.145 1.80334C205.788 2.09176 206.511 3.35669 206.175 3.64913C206.097 3.72189 204.775 2.91623 204.144 3.01568C202.291 3.30978 202.782 4.48271 202.675 4.51698C202.556 4.55324 201.353 3.74823 200.698 3.80062C200.232 3.83868 199.836 3.92605 199.457 4.01117C198.49 4.22617 197.639 4.42619 196.031 3.78736C197.297 2.97522 196.545 1.29945 198.009 1.76732ZM274.207 3.80921C274.287 3.06505 275.594 3.73552 276.078 3.62979C275.996 4.37574 274.681 3.70326 274.207 3.80921ZM76.7849 9.9517C76.422 11.1893 79.5415 11.3649 78.6816 10.3821C78.4909 10.1637 77.1776 9.94391 76.7849 9.9517ZM90.687 10.1726C91.0844 9.8208 89.4065 8.99851 89.4417 9.9438C89.4554 10.2468 90.6354 10.2183 90.687 10.1726ZM224.573 2.48193C224.652 2.44265 225.793 2.70206 225.828 2.76394C226.598 4.05269 222.838 3.34577 224.573 2.48193ZM107.159 8.11836C105.796 8.96587 109.993 9.17134 108.679 8.19391C108.614 8.14643 107.223 8.0773 107.159 8.11836ZM112.94 7.69492C112.615 7.74963 111.132 7.40381 111.125 7.77713C111.118 8.37948 112.813 8.7311 112.94 7.69492ZM253.094 1.98534C252.931 0.607775 254.941 1.65685 255.644 1.48634C255.807 2.86478 253.79 1.81327 253.094 1.98534ZM240.359 0.967284C248.886 -0.131476 247.011 2.81021 239.852 1.63951C239.839 0.756194 239.82 1.03718 240.359 0.967284ZM251.264 1.1286C250.952 2.01 249.986 1.7465 249.335 1.67494C249.452 1.06172 250.792 1.28598 251.264 1.1286ZM72.982 8.22186C73.4774 7.08382 75.9325 8.35366 75.5258 8.83127C75.4319 8.93397 72.8115 8.84229 72.982 8.22186ZM225.276 1.29552C225.064 -0.0417082 227.624 0.477379 227.834 0.773236C228.638 1.96134 225.477 0.996973 225.276 1.29552ZM265.075 0.863856C265.523 -0.182341 266.782 0.365207 267.604 0.384627C267.223 1.27899 265.759 0.886924 265.075 0.863856ZM259.196 0.00922362C259.251 -0.0308101 260.387 0.0696047 260.435 0.118186C261.362 1.14738 258.142 0.868847 259.196 0.00922362ZM0.173897 15.8207C0.209143 15.7709 1.53812 15.3896 1.59093 15.4154C3.05343 15.9821 -0.85112 17.095 0.173897 15.8207Z" fill="#F54A00"/>
</svg>
